#!OML:ASF F:\VICON\USERDATA\INSTALL\rory3\rory3.ASF
:FULLY-SPECIFIED
:DEGREES
115
root -0.8624466713052967 17.792096406297293 21.558962390059317 3.881985096285914 -2.2932841449289514 -1.0128940296974218
lfemur -12.441501571255216 3.148695055269228 -22.255169895267038
ltibia 59.2504182196552
lfoot 4.048682782606782 -13.370456471654407
ltoes -24.185712970295622
rfemur -25.074705954906825 3.8485320195950687 26.197413078719663
rtibia 98.05670600744664
rfoot 2.734059588328858 -10.007087953543637
rtoes -13.214450641164767
lowerback 14.72088811752579 2.088581764991763 1.7219650175618357
upperback -0.634057795056364 3.3330572778231207 0.7456071994949176
thorax -8.508031217924149 1.5867399750778115 -1.6274654822832446
lowerneck -18.57706545375322 -5.0672608218934005 -1.5464049692062385
upperneck 14.539187865692098 -7.3235562728443115 3.534022777784753
head 8.224232704012307 -3.125407433405718 0.5905673468947719
lclavicle -2.0490533157843266e-17 4.258099200359128e-16
lhumerus -49.21010350126359 -9.299484517208354 93.19589518607694
lradius 88.15735409000477
lwrist 34.314116358671384
lhand -25.649619609949912 3.312569227050483
lfingers 7.125019999999998
lthumb 1.0743447390801641 33.3032645779177
rclavicle -2.0490533366426302e-17 4.2580991989770986e-16
rhumerus -45.388218630344824 11.756855226735425 -92.80641793760587
rradius 99.88077265020766
rwrist -21.26556263306586
rhand -19.92793580210893 44.529085109411305
rfingers 7.125019999999998
rthumb 5.9017179885467055 14.496729617213258
116
root -0.8599931102575158 17.78155812172669 21.71518494544813 3.7564197141413507 -2.2480153977388153 -0.9492637550652697
lfemur -12.692727299819603 2.9862404777666516 -22.199225678577452
ltibia 60.67436652503341
lfoot 3.699141504478833 -12.985017859888687
ltoes -22.42198624992287
rfemur -24.84836210128813 3.7321258333125824 26.26976768045197
rtibia 97.24194798220873
rfoot 3.057743801447673 -10.016647423383482
rtoes -12.444841584870233
lowerback 14.770092566089502 2.1173043141597807 1.7068715467149846
upperback -0.6039064340453857 3.365523715863782 0.6811394808547252
thorax -8.495808568247355 1.5941017899639087 -1.6602354202506582
lowerneck -18.5947304883773 -5.132953139565455 -1.5492795907202794
upperneck 14.37451076546294 -7.416345561243613 3.546478822196551
head 8.153412715029173 -3.1710567301981385 0.5950017375766138
lclavicle -2.0490533158275325e-17 4.258099200357689e-16
lhumerus -48.90438194382728 -9.320430622535692 93.20121697461819
lradius 88.16491256936732
lwrist 34.19307186042017
lhand -25.613586932488907 3.877114157920359
lfingers 7.125019999999998
lthumb 0.6871563339163282 32.81950735178126
rclavicle -2.049053336765727e-17 4.2580991989706196e-16
rhumerus -45.43810459833268 11.7146134512266 -92.80100316960711
rradius 99.94351932493319
rwrist -21.21386324183308
rhand -20.03617727994266 44.413497621761216
rfingers 7.125019999999998
rthumb 5.8523083917712 14.40218648043615
117
root -0.856915340223172 17.76001054940315 21.94862069160652 3.6207919787924476 -2.21321781485675 -0.8709842170899873
lfemur -12.991168231002135 2.8993985779449196 -22.12960544632547
ltibia 62.135257850144015
lfoot 3.6964812568333385 -12.424001779968343
ltoes -20.234198135819838
rfemur -24.579406181897284 3.6587609041884943 26.32854241255903
rtibia 96.50991703805173
rfoot 3.1424510692621688 -10.081006420264721
rtoes -11.489401530903319
lowerback 14.834397890875943 2.1454397081323204 1.6609970823356934
upperback -0.5753655405654982 3.3906222296636965 0.6081463706711752
thorax -8.490986213168712 1.602722776030578 -1.6832941501245484
lowerneck -18.58910211433371 -5.192186892073229 -1.5467788282165364
upperneck 14.179922982970536 -7.50416513727528 3.5719939429098986
head 8.057412848041938 -3.215499183637786 0.6064458793454711
lclavicle -2.049053315887861e-17 4.2580992003551563e-16
lhumerus -48.57545766282238 -9.361814427746891 93.23050113645665
lradius 88.16821249223939
lwrist 34.165204545437334
lhand -25.610935405255194 4.178015598991977
lfingers 7.125019999999998
lthumb 0.627428610699714 33.1637346718602
rclavicle -2.0490533371200423e-17 4.258099198949428e-16
rhumerus -45.476140567253644 11.664726814565407 -92.81724443997503
rradius 100.02135472205973
rwrist -20.928732199339713
rhand -20.120278228194987 44.186766954481385
rfingers 7.125019999999998
rthumb 5.8083870675737295 14.188871466412458
118
root -0.8483096405505566 17.73283539900872 22.2580385249691 3.487650825080545 -2.1628738372580774 -0.7883833935273434
lfemur -13.329572176811991 2.8638365649985422 -22.055023158954697
ltibia 63.63021683919676
lfoot 2.714046588292742 -12.358564490593126
ltoes -20.329977423113615
rfemur -24.27229971094961 3.5864060951928387 26.387039021106723
rtibia 95.85888173201394
rfoot 3.0102168532634543 -10.102475239436865
rtoes -11.937298902194115
lowerback 14.883114025246613 2.1626055191345146 1.6220169374315714
upperback -0.5617371485394417 3.4030474722755457 0.530993839938908
thorax -8.5036488544067 1.6053286988122024 -1.7258608910278426
lowerneck -18.56169343598014 -5.247863295275067 -1.5559822227994984
upperneck 13.949557000582299 -7.584354193712684 3.616939069156853
head 7.947608132956934 -3.251145694901357 0.6242853883040472
lclavicle -2.0490533156813257e-17 4.258099200368612e-16
lhumerus -48.28472081560044 -9.403369677731606 93.28346824398633
lradius 88.27070834222602
lwrist 34.21401771803692
lhand -25.697597484001093 4.520210213420212
lfingers 7.125019999999998
lthumb 0.2025797083788916 32.41138594462492
rclavicle -2.049053337280429e-17 4.2580991989393797e-16
rhumerus -45.492986344183436 11.623170839425034 -92.84789871297987
rradius 100.0763283134823
rwrist -20.855428150212155
rhand -20.12836508000742 43.95161592443213
rfingers 7.125019999999998
rthumb 5.8004998948647275 13.915459819462102
119
root -0.8395970545711041 17.706142740134705 22.623937674937835 3.3654062688826323 -2.0881378575305196 -0.7054647029921801
lfemur -13.71665309611703 2.858735353796285 -21.971797491458755
ltibia 65.15145722929998
lfoot 2.019337436826651 -12.214859840102685
ltoes -20.030637049216644
rfemur -23.890590537004314 3.5072849885014357 26.467918798031334
rtibia 95.25997276960851
rfoot 2.7922527735989657 -10.066771629699682
rtoes -12.06499281128102
lowerback 14.925685796598069 2.1693398483301483 1.5759451770827262
upperback -0.5393121609099569 3.392241996322673 0.44992955355722275
thorax -8.521131571474928 1.5932508201487088 -1.7526302865087278
lowerneck -18.614734983800357 -5.2983679292306265 -1.5724729516470226
upperneck 13.738829103939922 -7.650033417479512 3.672112089947482
head 7.8468431462523665 -3.275329615888503 0.6445908522900847
lclavicle -2.04905331554762e-17 4.258099200375787e-16
lhumerus -47.92299068141502 -9.427525429205284 93.31280325499056
lradius 88.51196413313042
lwrist 34.26880829231404
lhand -25.781716961071144 4.435678341559038
lfingers 7.125019999999998
lthumb 0.18897490823397822 33.01068323690772
rclavicle -2.0490533373172742e-17 4.2580991989353077e-16
rhumerus -45.44265187804969 11.593423065334004 -92.88608420963556
rradius 100.11837403102449
rwrist -20.573574490400475
rhand -20.091374324742628 43.684183302824934
rfingers 7.125019999999998
rthumb 5.802214319329824 13.563621000883002
120
root -0.8263705639668302 17.681692859099645 23.064819517008313 3.2577840345561317 -1.9758088589494651 -0.6015530459187212
lfemur -14.119134474284504 2.8714329704098436 -21.899295739394454
ltibia 66.69464041950833
lfoot 1.0930171948287812 -12.287230115848919
ltoes -19.277055818369483
rfemur -23.415080324089438 3.385575390051419 26.532701441734723
rtibia 94.69674633000022
rfoot 2.5909010429548687 -9.925051758829554
rtoes -11.339778000460612
lowerback 14.942381419328122 2.1638096012214794 1.5201286668877008
upperback -0.4951593671809857 3.355005141777988 0.34761825963375803
thorax -8.495059754508848 1.5753503169610685 -1.7609480681180392
lowerneck -18.7685034064833 -5.337479124517142 -1.5719024507411599
upperneck 13.56140492801285 -7.699491562890601 3.7236017314144014
head 7.757497060829996 -3.2959619931934543 0.6639373079842017
lclavicle -2.0490533154427292e-17 4.2580992003799477e-16
lhumerus -47.56950397633641 -9.48522254546416 93.28542779031638
lradius 88.87316671967967
lwrist 34.328675793975876
lhand -26.04597888344893 3.9588045416785267
lfingers 7.125019999999998
lthumb 0.014106548860475687 33.37709536395373
rclavicle -2.0490533376542672e-17 4.258099198910909e-16
rhumerus -45.31199772712028 11.577820725692433 -92.93202248139205
rradius 100.13841420989962
rwrist -20.45571610152787
rhand -20.033889579130413 43.42181543711034
rfingers 7.125019999999998
rthumb 5.861774730990125 13.300939841394694
121
root -0.813108572745227 17.654738720973743 23.494972604862067 3.1658904344622334 -1.8394138943346436 -0.4938627278306792
lfemur -14.568370728857971 2.900550619933498 -21.8295694696987
ltibia 68.27603450624493
lfoot 0.5687699457825826 -12.005191717916766
ltoes -17.987366853661364
rfemur -22.88033491848449 3.292303124279087 26.57889227212451
rtibia 94.18035694015214
rfoot 2.4449600566391148 -9.87422210456583
rtoes -10.040262594912111
lowerback 14.955445802846338 2.151913644601167 1.4537820295325732
upperback -0.47295757837264546 3.318199244080872 0.2528291682699596
thorax -8.5039560121659 1.5523884360782332 -1.7619144647165368
lowerneck -18.846795251741685 -5.368088551161057 -1.568187086598997
upperneck 13.35243118817234 -7.737897848909948 3.774479981829332
head 7.649299396507231 -3.312378436773227 0.684389421359373
lclavicle -2.0490533150650778e-17 4.2580992004020245e-16
lhumerus -47.38535768993495 -9.560751588964518 93.26022030874192
lradius 89.34600323571712
lwrist 34.39010226798033
lhand -26.35122217697652 3.643460661862168
lfingers 7.125019999999998
lthumb 0.05523207906323213 33.837358663300286
rclavicle -2.0490533380371307e-17 4.2580991988840875e-16
rhumerus -45.16327016060206 11.57113995398809 -92.9984643994416
rradius 100.13820871921757
rwrist -20.206483263915104
rhand -20.020086007621078 43.08505927601666
rfingers 7.125019999999998
rthumb 5.893410343351471 13.026275241796332
